<?xml version="1.0" standalone="no"?>
<!DOCTYPE svg PUBLIC "-//W3C//DTD SVG 20010904//EN"
 "http://www.w3.org/TR/2001/REC-SVG-20010904/DTD/svg10.dtd">
<svg version="1.0" xmlns="http://www.w3.org/2000/svg"
 width="626.000000pt" height="626.000000pt" viewBox="0 0 626.000000 626.000000"
 preserveAspectRatio="xMidYMid meet">
<metadata>
Created by potrace 1.13, written by Peter Selinger 2001-2015
</metadata>
<g transform="translate(0.000000,626.000000) scale(0.100000,-0.100000)"
fill="#000000" stroke="none">
<path d="M1414 6202 c-126 -81 -178 -118 -195 -138 -12 -15 -15 -266 -19
-1798 l-5 -1781 -101 -6 c-85 -4 -110 -10 -158 -34 -75 -38 -157 -127 -188
-202 -23 -58 -23 -61 -26 -580 l-3 -523 -94 0 c-85 0 -97 -2 -122 -24 l-28
-24 0 -301 c0 -299 0 -301 23 -323 22 -22 30 -23 245 -28 l222 -5 5 -155 c6
-176 14 -199 85 -248 l40 -27 311 0 310 0 38 25 c67 45 80 84 86 255 l5 150
1285 0 1285 0 5 -155 c6 -175 15 -199 86 -248 l39 -27 310 0 310 0 40 27 c71
49 79 72 85 248 l5 155 222 5 c215 5 223 6 245 28 23 22 23 24 23 323 l0 301
-28 24 c-25 22 -37 24 -122 24 l-94 0 -3 523 c-3 519 -3 522 -26 580 -31 75
-113 164 -188 202 -48 24 -73 30 -158 34 l-101 6 -5 1781 c-4 1532 -7 1783
-19 1798 -17 20 -69 57 -195 138 -104 67 -134 72 -177 29 l-29 -29 0 -565 c0
-310 -3 -567 -7 -570 -3 -4 -23 39 -44 94 -56 149 -102 224 -185 305 -52 52
-95 82 -156 112 -154 76 -99 72 -1118 72 -1020 0 -964 4 -1119 -72 -121 -60
-222 -161 -284 -285 -25 -51 -56 -124 -68 -162 -12 -39 -26 -68 -31 -65 -4 3
-8 260 -8 570 l0 566 -29 29 c-43 43 -73 38 -177 -29z m3096 -2157 l0 -465
-1380 0 -1380 0 0 465 0 465 1380 0 1380 0 0 -465z m-650 -1150 c19 -12 48
-40 65 -64 l30 -43 3 -609 c2 -382 -1 -630 -7 -665 -12 -66 -50 -116 -105
-141 -38 -17 -85 -18 -716 -18 -631 0 -678 1 -716 18 -55 25 -93 75 -105 141
-6 35 -9 283 -7 663 l3 608 22 36 c12 19 31 43 42 53 50 45 58 46 776 43 665
-2 681 -2 715 -22z m-2078 -1160 c14 -11 38 -38 53 -60 23 -34 26 -48 23 -97
-5 -71 -37 -120 -98 -151 -42 -20 -58 -22 -235 -22 -209 0 -244 7 -290 55 -80
84 -55 229 50 289 14 7 92 10 245 8 207 -2 227 -4 252 -22z m3191 14 c77 -40
115 -124 93 -209 -15 -58 -45 -94 -96 -118 -28 -13 -72 -16 -230 -17 -182 0
-198 1 -240 22 -61 31 -93 80 -98 151 -3 49 0 63 24 98 51 79 69 84 312 84
139 0 221 -4 235 -11z"/>
<path d="M2485 2786 c-52 -22 -71 -65 -53 -117 21 -60 6 -59 703 -59 l637 0
29 29 c55 55 26 139 -52 155 -18 3 -302 6 -633 6 -472 -1 -607 -4 -631 -14z"/>
<path d="M2460 2393 c-22 -20 -31 -37 -32 -61 -1 -39 29 -84 63 -93 13 -4 300
-7 637 -8 654 -1 666 0 691 47 18 34 13 79 -13 109 l-24 28 -646 3 -645 2 -31
-27z"/>
<path d="M2467 2029 c-11 -6 -25 -26 -33 -45 -12 -29 -12 -39 0 -68 8 -19 23
-39 34 -45 14 -8 222 -11 662 -11 l642 0 29 29 c41 41 37 102 -10 138 -21 17
-1296 18 -1324 2z"/>
<path d="M2491 1661 c-62 -17 -83 -104 -36 -150 l25 -26 651 0 651 0 24 28
c26 30 31 75 13 109 -25 47 -37 48 -691 47 -337 -1 -624 -4 -637 -8z"/>
</g>
</svg>
